<?xml version="1.0" encoding="utf-8" ?><svg xmlns="http://www.w3.org/2000/svg" xmlns:xlink="http://www.w3.org/1999/xlink" width="1024" height="1024" viewBox="0 0 1024 1024"><path fill="#EF6C61" d="M525.819 120.916L527.27 120.904C528.094 121.59 528.714 122.278 528.421 123.421C524.322 139.388 522.383 154.551 524.1 171.202C525.952 189.156 536.329 203.61 546.458 217.974C551.653 225.342 556.568 233.773 560.769 241.974C561.078 237.247 561.653 220.647 564.629 217.928C565.752 218.426 566.495 219.81 566.933 220.938C572.721 234.887 571.061 249.094 571.619 263.503C572.397 283.59 571.815 296.667 566.052 316.006C558.608 340.986 547.662 361.402 532.946 382.901C521.878 399.07 511.699 416.705 504.703 435.033C499.837 448.029 495.206 470.799 495.503 485.078C495.829 500.806 502.188 524.663 508.765 538.999C519.03 522.261 522.725 508.424 535.602 491.863C555.896 465.762 588.089 446.412 620.865 441.939C656.246 437.11 693.756 448.647 721.915 470.119C740.083 483.973 755.256 507.006 761.458 528.998C763.661 536.812 764.472 549.515 765.903 557.714C768.884 574.799 766.162 587.123 763.547 603.726C761.825 614.666 760.886 624.224 756.819 635.116C736.147 690.491 688.686 734.542 643.391 770.374C621.542 787.658 597.605 804.087 578.261 823.446C560.873 840.848 542.396 860.241 529.545 881.116C521.465 894.241 516.358 906.755 506.659 919.299C497.352 883.884 467.055 844.674 439.37 821.151C424.691 808.679 406.872 796.355 391.418 783.915C356.508 755.813 318.334 725.533 290.819 690.138C270.254 663.227 256.702 633.009 249.309 600.098C243.908 582.72 245.384 566.336 245.089 548.567C244.817 532.165 244.843 520.988 248.541 504.838C252.117 489.218 254.631 474.882 261.951 460.081C266.989 449.895 271.402 438.745 276.974 428.752C288.871 408.792 301.509 389.58 307.771 366.803C309.848 359.247 310.477 349.448 311.566 341.382C312.082 338.52 312.863 335.589 313.559 332.755C325.009 349.195 323.393 375.79 319.182 394.515C317.892 400.251 313.397 410.647 311.062 416.531C305.321 430.996 300.768 446.371 299.689 461.999C296.252 511.767 325.653 559.717 365.7 587.442C381.121 598.119 399.684 606.766 414.531 617.877C420.05 622.008 432.145 634.761 437.513 640.325C448.562 651.778 461.911 664.484 472.095 676.453C469.302 685.172 468.269 693.766 474.908 701.234C483.029 710.369 495.648 710.82 504.247 702.083C508.623 697.643 510.936 691.571 510.622 685.345C510.397 680.114 508.454 674.902 504.452 671.444C497.722 665.628 490.925 666.202 482.87 666.576C475.714 659.204 468.447 650.814 461.218 643.108C449.706 630.836 436.632 617.796 426.585 604.244C400.312 568.81 386.7 529.403 387.778 485.127C387.941 478.409 390.537 466.401 391.598 459.005C399.924 455.677 404.049 452.215 405.685 442.726C409.609 423.876 386.598 410.498 372.412 423.241C358.502 435.736 366.319 447.513 376.21 457.775C372.331 485.299 373.524 522.61 381.478 549.308C385.207 561.825 390.325 574.15 395.07 586.339C372.705 572.908 354.007 560.615 338.275 539.078C323.125 518.339 316.481 501.638 315.751 475.803C321.032 483.303 322.583 490.018 326.536 497.747C331.663 507.773 340.955 519.847 348.517 528.276C346.62 523.226 344.165 518.136 342.388 513.011C338.02 500.418 334.546 487.605 331.86 474.574C329.585 463.537 330.346 455.405 329.983 445.057C328.82 411.869 336.949 387.362 355.459 360.105C367.793 341.203 383.074 321.925 390.229 300.349C397.521 278.362 394.759 254.956 382.753 235.28C382.015 234.069 381.91 233.116 382.344 231.859C383.159 231.2 384.335 230.368 385.488 230.663C418.845 239.511 438.627 271.606 444.715 303.823C448.777 325.323 442.567 341.487 442.207 361.756C445.966 354.743 450.876 347.371 454.634 340.481C460.535 329.662 468.047 310.521 468.597 298.23C469.089 287.256 468.266 280.237 469.55 268.493C485.004 287.562 482.367 299.615 485.598 321.179C503.449 296.383 500.854 278.119 494.172 248.707C492.649 242.005 489.281 232.66 488.157 225.988C485.347 209.311 485.863 187.519 490.514 171.422C495.013 155.85 511.294 128.68 525.819 120.916Z"/><path fill="none" d="M625.806 482.703C642.051 480.357 663.353 485.288 677.461 493.612C716.404 516.588 727.29 566.976 717.839 608.832C694.234 713.372 582.901 750.956 530.557 838.7C532.667 829.535 536.321 824.398 538.645 817.351C540.472 811.81 546.619 792.49 547.384 787.226C550.083 768.637 550.725 743.881 547.881 725.572C540.653 679.043 512.162 649.469 480.256 618.07C468.61 606.608 457.896 594.789 448.583 581.051C441.543 581.146 435.137 581.185 428.901 577.293C413.428 567.633 420.377 542.897 437.346 539.733C443.756 538.538 448.386 540.268 453.547 543.828C463.217 552.552 461.349 561.932 458.944 573.151C466.202 581.319 473.24 590.108 480.84 597.863C502.352 619.812 524.739 640.188 541.5 666.251C554.744 686.344 562.177 707.065 564.893 730.986C566.786 747.656 566.521 756.714 562.959 773.024C572.762 765.215 579.723 756.044 588.742 748.313C620.114 721.418 653.77 696.78 676.853 661.772C696.876 631.402 706.668 593.964 699.132 557.79C695.113 538.497 686.833 522.502 670.006 511.146C652.948 499.634 626.077 498.717 606.403 502.057C588.659 505.07 564.6 521.697 553.4 535.477C548.351 541.689 545.019 548.441 540.68 555.212C542.53 547.182 545.138 541.96 548.992 534.739C565.158 504.451 591.541 485.988 625.806 482.703Z"/><path fill="#EF6C61" d="M439.041 551.486C451.148 551.847 455.14 562.419 442.938 568.856C432.134 571.131 426.559 557.57 439.041 551.486Z"/><path fill="none" d="M271.999 520.237C277.002 524.031 280.32 546.121 284.261 554.251C291.542 569.272 299.313 580.498 308.997 593.965C315.641 590.667 321.553 588.341 329.049 590.749C340.037 594.28 345.23 607.455 341.383 617.936C338.584 625.562 332.887 628.986 325.953 632.037C331.187 685.451 394.316 704.423 423.13 742.983C432.21 755.134 439.799 767.981 447.104 781.263C450.089 786.645 452.11 790.847 454.347 796.559C451.213 793.097 448.239 787.974 445.229 784.113C419.103 750.604 383.601 726.386 351.185 699.518C326.955 679.436 313.658 661.15 310.968 629.289C309.842 628.148 308.734 626.989 307.646 625.812C301.574 619.173 301.635 614.352 302.045 606.117C276.624 574.352 271.186 561.581 271.999 520.237Z"/><path fill="#EF6C61" d="M319.56 602.356C324.163 601.11 328.91 603.805 330.198 608.395C331.486 612.986 328.834 617.757 324.256 619.087C319.618 620.434 314.771 617.741 313.466 613.091C312.161 608.441 314.899 603.619 319.56 602.356Z"/><path fill="none" d="M378.862 622.081C399.453 620.771 403.41 633.072 403.298 650.628C413.12 660.049 425.352 669.088 435.477 678.355C462.42 703.016 483.149 726.202 500.043 758.508C506.204 758.355 511.449 758.606 516.802 762.261C525.831 768.426 528.563 783.334 521.643 792.032C516.59 798.384 511.496 800.34 503.795 801.441C491.425 800.5 482.79 791.771 484.4 779.056C484.967 774.579 486.182 772.025 487.985 767.972C459.818 715.764 439.534 700.113 394.998 661.995C387.893 663.319 380.655 664.686 373.747 661.543C368.851 659.341 365.094 655.199 363.378 650.112C359.188 637.647 366.557 625.739 378.862 622.081Z"/><path fill="#EF6C61" d="M501.578 771.296C506.219 769.754 511.233 772.253 512.798 776.886C514.363 781.519 511.89 786.546 507.264 788.134C502.606 789.733 497.536 787.239 495.96 782.572C494.384 777.906 496.904 772.848 501.578 771.296Z"/><path fill="#EF6C61" d="M380.103 634.064C383.908 633.702 388.496 634.215 390.416 637.822C393.923 644.413 389.794 648.123 384.945 651.022C375.453 653.945 368.659 641.186 380.103 634.064Z"/><path fill="none" d="M512.078 205.868C513.5 207.3 516.848 216.722 517.93 219.257C519.601 223.15 521.531 226.927 523.706 230.562C532.872 245.567 544.041 265.592 544.348 284.004C544.091 324.516 511.01 359.142 490.109 391.264C470.324 421.67 462.775 448.67 462.522 484.375C462.538 490.537 462.56 496.495 462.326 502.656C458.193 484.296 456.607 443.218 460.724 424.358C466.541 397.704 487.746 366.881 502.468 343.93C511.508 329.838 521.07 314.594 524.211 297.669C527.829 274.659 523.41 252.437 516.761 230.511C514.474 222.97 512.145 213.78 512.078 205.868Z"/><path fill="none" d="M420.78 350.346C423.278 353.053 421.41 377.645 422.447 383.935C425.044 399.693 440.514 409.468 441.353 425.472C441.724 432.558 441.781 447.736 440.132 454.225C433.385 480.78 425.719 486.726 431.845 514.656C427.736 515.766 424.128 516.515 419.947 517.351C413.824 513.57 417.434 480.383 419.455 473.958C424.372 458.325 430.559 443.625 426.505 426.921C423.382 414.05 413.487 404.138 409.921 391.508C406.76 380.025 414.84 360.089 420.78 350.346Z"/><path fill="#EF6C61" d="M633.737 207.863C634.901 207.937 634.474 207.873 635.582 208.413C637.102 211.427 630.544 231.388 631.607 238.719C633.291 250.327 635.484 261.557 642.794 271.246C654.719 287.053 671.958 299.517 673.79 320.863C674.939 334.572 674.273 349.007 673.114 362.719C671.048 370.776 667.942 376.728 667.997 385.262C668.067 396.137 670.953 408.74 684.579 408.654C699.613 408.558 691.023 387.606 690.44 378.798C689.426 363.468 690.555 348.497 700.602 336.093C701.847 334.571 703.907 332.246 705.955 332.088C707.208 333.973 706.048 352.227 706.537 357.743C706.999 362.968 708.113 368.115 709.855 373.064C715.103 388.19 725.965 403.633 734.291 417.224C745.877 436.236 754.083 457.112 758.546 478.925C740.176 458.039 716.953 441.988 690.923 432.185C673.072 425.613 656.326 426.037 650.254 403.874C646.427 385.363 654.827 369.489 656.048 351.156C657.426 330.452 654.221 317.714 641.097 302.07C645.957 316.498 644.01 316.508 644.791 329.524C647.877 355.223 633.109 370.224 619.195 389.377C612.726 398.282 609.899 407.163 610.971 418.134C611.212 420.598 609.923 425.433 607.664 427.123C598.299 434.174 587.1 427.592 581.219 419.297C561.776 391.87 571.288 347.66 597.541 328.005C595.678 356.201 588.594 355.456 601.568 382.217C604.95 375.98 610.427 369.555 614.771 363.788C623.464 352.249 627.058 341.424 626.472 326.993C626.098 318.384 624.594 309.862 622 301.645C616.123 282.734 606.521 266.668 609.943 245.867C612.061 232.994 623.283 215.175 633.737 207.863Z"/><path fill="#EF6C61" d="M556.784 370.371C557.336 373.161 552.054 391.8 551.507 396.542C549.537 413.647 552.561 429.17 562.426 443.138C559.677 446.176 555.474 449.784 552.306 452.47C539.994 462.909 529.463 474.098 518.858 486.292C516.808 488.7 514.793 490.844 512.627 493.143C512.515 492.364 512.421 491.584 512.345 490.802C511.785 485.299 512.415 478.665 513.003 473.183C515.785 447.266 524.975 423.822 537.234 401.037C543.937 388.58 547.713 381.404 556.784 370.371Z"/><path fill="#EF6C61" d="M382.143 430.578C385.456 430.183 389.25 430.072 392.056 432.257C393.578 433.457 394.507 435.256 394.605 437.191C394.853 441.669 392.054 445.303 389.213 448.402C377.197 448.904 372.121 437.998 382.143 430.578Z"/><path fill="#EF6C61" d="M489.148 678.567C501.407 678.088 502.483 691.333 491.461 696.902C479.534 696.37 477.074 682.913 489.148 678.567Z"/></svg>
